<?xml version="1.0" encoding="UTF-8" standalone="no"?>
<!-- Created with Inkscape (http://www.inkscape.org/) -->

<svg
   width="48.11919mm"
   height="60.070801mm"
   viewBox="0 0 48.11919 60.070801"
   version="1.1"
   id="svg1"
   xml:space="preserve"
   xmlns:inkscape="http://www.inkscape.org/namespaces/inkscape"
   xmlns:sodipodi="http://sodipodi.sourceforge.net/DTD/sodipodi-0.dtd"
   xmlns="http://www.w3.org/2000/svg"
   xmlns:svg="http://www.w3.org/2000/svg"><sodipodi:namedview
     id="namedview1"
     pagecolor="#505050"
     bordercolor="#eeeeee"
     borderopacity="1"
     inkscape:showpageshadow="0"
     inkscape:pageopacity="0"
     inkscape:pagecheckerboard="0"
     inkscape:deskcolor="#505050"
     inkscape:document-units="mm" /><defs
     id="defs1" /><g
     inkscape:label="Layer 1"
     inkscape:groupmode="layer"
     id="layer1"
     transform="translate(-13.941549,-4.3566998)"><path
       style="fill:#fefefe;fill-opacity:1;stroke:none;stroke-width:13.2292"
       d="m 35.65381,4.3566998 c 0.513892,1.2965648 0.69592,2.6869424 1.155859,4.0010508 0.310258,0.8864518 0.419322,0.8644583 0.622384,1.7782454 0.05184,0.233254 0.04488,0.476446 0.08891,0.711297 0.15518,0.827636 0.359867,1.664913 0.533471,2.489543 0.136652,0.649085 0.393351,1.290332 0.444564,1.95607 0.04773,0.620545 0.04456,1.246269 0.08891,1.867157 0.06579,0.921058 0.254109,1.842412 0.35565,2.756279 0.05192,0.467267 -0.06644,0.957484 0,1.422596 0.01326,0.09278 0.0735,0.17429 0.08891,0.266737 0.06383,0.38299 0,0.859404 0,1.244771 0,0.889123 0,1.778245 0,2.667367 0,0.605485 -0.08549,1.268702 0,1.867157 0.03051,0.213596 0.147312,0.408791 0.177826,0.622386 0.02514,0.176037 -0.0177,0.356532 0,0.533474 0.04725,0.472537 0.320271,1.885312 0.533472,2.311717 0.07728,0.154569 0.156104,0.311803 0.266737,0.444563 0.06841,0.08209 0.199983,0.09438 0.266737,0.177824 0.05855,0.07318 0.02265,0.200464 0.08891,0.266737 0.06627,0.06627 0.193551,0.03036 0.266737,0.08891 0.08344,0.06675 0.11107,0.183295 0.177824,0.266737 0.256823,0.321032 0.645014,0.740164 0.978035,0.978035 0.107855,0.07704 0.243253,0.107577 0.355648,0.177824 0.161096,0.100687 0.434289,0.350514 0.622387,0.44456 0.654396,0.3272 1.44132,0.658265 2.133894,0.889125 0.46728,0.15576 0.956323,0.09305 1.422595,0.177824 0.393047,0.07146 0.761016,0.217381 1.155859,0.266737 0.638072,0.07976 1.32212,-0.105659 1.95607,0 0.09245,0.0154 0.174289,0.0735 0.266737,0.08891 0.116935,0.0195 0.249613,-0.05301 0.355648,0 0.07655,0.03828 0.186078,0.15766 0.266737,0.177827 0.172516,0.04313 0.35702,-0.02207 0.533474,0 0.314182,0.03927 1.311161,0.162808 1.600419,0.355647 0.06248,0.04165 0.06893,0.295691 0.08891,0.355651 0.02651,0.07953 0.151316,0.0983 0.177824,0.177823 0.111676,0.335029 -0.05776,0.786784 -0.177824,1.066946 -0.0694,0.161933 -0.311239,0.611309 -0.444563,0.7113 -0.191154,0.143365 -0.431229,0.212281 -0.622385,0.355648 -0.05302,0.03976 -0.04205,0.130963 -0.08891,0.177824 -0.180483,0.180483 -0.499364,0.287433 -0.622385,0.533474 -0.04191,0.08383 -0.04069,0.18637 -0.08891,0.266737 -0.0042,0.007 -0.842801,0.765469 -0.889121,0.800211 -0.07498,0.05623 -0.200465,0.02265 -0.266738,0.08891 -0.02096,0.02096 0.02096,0.06796 0,0.08891 -0.222067,0.222067 -0.8789,0.591727 -0.978034,0.889122 -0.174483,0.523446 0.341275,0.6522 0.711297,0.800211 0.184595,0.07384 0.346631,0.198792 0.533475,0.266737 1.012343,0.368122 2.480873,0.177823 3.556489,0.177823 0.964665,0 1.972445,0.08014 2.934105,0 0.454911,-0.03791 0.885949,-0.210769 1.333682,-0.266737 0.379066,-0.04738 0.778031,-0.03493 1.155859,-0.08891 0.274037,-0.03915 0.527042,-0.221207 0.800211,-0.266737 0.681675,-0.113612 1.543923,-0.264652 2.133894,0.177827 0.489823,0.367366 0.165386,1.00475 0.266737,1.511506 0.0621,0.31052 0.08891,0.565936 0.08891,0.889124 0,0.710748 -0.0016,1.18771 -0.444561,1.778244 -0.0503,0.06706 -0.134697,0.105944 -0.177826,0.177824 -0.08691,0.144851 -0.369261,0.745474 -0.533472,0.800211 -0.05623,0.01876 -0.121592,-0.01873 -0.177826,0 -0.165592,0.0552 -0.345543,0.204094 -0.533472,0.266737 -0.418999,0.139665 -0.901618,0.0409 -1.333685,0.08891 -1.089787,0.121086 -2.18776,0.08891 -3.289752,0.08891 -0.509141,0 -1.097778,-0.08377 -1.60042,0 -0.466394,0.07773 -0.94462,0.213629 -1.422596,0.266737 -0.519316,0.0577 -1.076761,0 -1.600422,0 -0.978035,0 -1.956067,0 -2.934102,0 -0.433319,0 -0.906174,-0.05344 -1.333685,0 -0.382733,0.04784 -0.750599,0.286387 -1.066946,0.44456 -0.154823,0.07741 -0.147796,0.472247 -0.177826,0.622388 -0.08081,0.404053 -0.159491,0.821285 -0.08891,1.244769 0.13008,0.780489 0.03271,-0.135911 0.177824,0.444561 0.01437,0.05751 -0.01873,0.121592 0,0.177826 0.01326,0.03976 0.07875,0.04825 0.08891,0.08891 0.07409,0.296376 -0.0494,0.197583 0,0.444563 0.03676,0.183804 0.141063,0.349668 0.177824,0.533472 0.02326,0.116247 -0.03749,0.243184 0,0.35565 0.01326,0.03976 0.07017,0.05142 0.08891,0.08891 0.04659,0.09318 0,0.341672 0,0.444563 0,0.804593 -0.183311,1.396614 -0.889124,1.867157 -0.104621,0.06975 -0.147447,0.226973 -0.266737,0.266737 -0.05623,0.01873 -0.120319,-0.01437 -0.177824,0 -0.20285,0.05071 -0.48732,0.332571 -0.711298,0.444561 -0.400994,0.200496 0.09644,-0.03215 -0.533474,0.177824 -0.292542,0.09751 -1.000749,0.630605 -1.155858,0.889121 -0.13031,0.217186 -0.186405,0.559216 -0.266737,0.800211 -0.128284,0.38485 -0.377193,0.75166 -0.444561,1.155859 -0.118592,0.71156 -0.266227,1.420559 -0.444561,2.133894 -0.11579,0.463161 -0.454073,0.857287 -0.533474,1.333682 -0.09104,0.546243 -0.08111,0.247238 -0.266735,0.711298 -0.02201,0.05504 0.01437,0.120322 0,0.177827 0.05359,0.160924 -0.144034,0.165359 -0.177826,0.266737 -0.01873,0.05623 0.02651,0.124806 0,0.177823 -0.03999,0.07999 -0.372727,0.390684 -0.444561,0.444561 -0.102246,0.07668 -0.749221,0.182179 -0.889122,0.08891 -0.110283,-0.07352 -0.109632,-0.241996 -0.177823,-0.355651 -0.408909,-0.681511 -0.565902,-2.115066 -1.422596,-2.40063 -0.566275,-0.188757 -0.717968,1.544857 -0.800211,1.956069 -0.02326,0.116248 0.02875,0.240639 0,0.355648 -0.0369,0.1476 -0.173017,0.497427 -0.266737,0.622387 -0.08734,0.116457 -0.640853,0.781744 -0.889122,0.533474 -0.201192,-0.201191 -0.404932,-1.254421 -0.622387,-1.689332 -0.04976,-0.09953 -0.03708,-0.366816 -0.08891,-0.444561 -0.03676,-0.05514 -0.141065,-0.03377 -0.177824,-0.08891 -0.03288,-0.04932 0.02201,-0.122791 0,-0.177824 -0.103841,-0.259602 -0.319521,-0.461219 -0.444563,-0.711298 -0.303988,-0.607978 -0.531479,-1.240121 -0.800209,-1.867157 -0.07832,-0.18274 -0.212119,-0.34231 -0.266737,-0.533474 -0.06564,-0.229751 -0.01335,-0.484616 -0.08891,-0.711298 -0.03379,-0.101375 -0.140304,-0.166682 -0.177825,-0.266737 -0.417493,-1.113314 0.151255,0.05655 -0.177824,-0.711298 -0.54567,-1.273228 0.143074,0.518136 -0.266737,-0.711298 -0.106617,-0.319852 -0.466591,-0.855284 -0.622386,-1.244772 -0.480861,-1.202152 -0.639096,-2.417339 -1.60042,-3.378665 -0.07556,-0.07556 -0.191176,-0.102264 -0.266737,-0.177824 -0.190248,-0.190249 -0.303775,-0.438626 -0.533473,-0.622385 -0.130946,-0.104756 -0.310248,-0.166002 -0.444561,-0.266737 -0.100593,-0.07545 -0.154271,-0.210505 -0.266737,-0.266737 -0.08383,-0.04191 -0.191759,-0.03268 -0.266737,-0.08891 -0.05302,-0.03976 -0.04205,-0.130963 -0.08891,-0.177824 -0.159787,-0.159787 -0.435028,-0.230743 -0.622386,-0.35565 -0.2604,-0.173598 -0.517609,-0.392171 -0.80021,-0.533471 -0.09484,-0.04742 -0.260809,0.04742 -0.355649,0 -0.08821,-0.0441 -0.17464,-0.147127 -0.266737,-0.177827 -0.09091,-0.0303 -0.467298,-0.02273 -0.533473,-0.08891 -0.0077,-0.0078 -0.07318,-0.397362 -0.08891,-0.444561 -0.115732,-0.347197 -0.22658,-0.646764 -0.533474,-0.800211 -0.152864,-0.07643 -0.160492,-0.217948 -0.355649,-0.266737 -0.0575,-0.01437 -0.121591,0.01876 -0.177824,0 -0.03976,-0.01326 -0.04915,-0.07566 -0.08891,-0.08891 -0.186074,-0.06203 -0.428861,0.0387 -0.622386,0 -0.0919,-0.01839 -0.1734,-0.08043 -0.266737,-0.08891 -0.230788,-0.02098 -1.998462,0.112172 -2.222806,0 -0.218938,-0.109469 -0.619903,-0.139364 -0.889122,-0.177824 -0.23306,-0.03329 -0.786342,-0.025 -0.978035,-0.08891 -0.644028,-0.214675 0.14018,0.02564 -0.266737,-0.177824 -0.02651,-0.01326 -0.06795,0.02096 -0.08891,0 -0.02096,-0.02096 0.01326,-0.0624 0,-0.08891 -0.08021,-0.160412 -0.277689,-0.288642 -0.355649,-0.444561 -0.08966,-0.179314 -0.06129,-0.289182 -0.177824,-0.444561 -0.161581,-0.21544 -0.371893,-0.406945 -0.533474,-0.622385 -0.117088,-0.15612 -0.158385,-0.370948 -0.266736,-0.533474 -0.0465,-0.06975 -0.140336,-0.102849 -0.177825,-0.177824 -0.01325,-0.02651 0.02096,-0.06795 0,-0.08891 -0.0296,-0.0296 -0.545578,-0.07355 -0.622386,-0.08891 -0.06498,-0.01299 -0.112455,-0.07802 -0.177824,-0.08891 -0.619647,-0.103274 -1.27194,0.109493 -1.867158,-0.08891 -0.08392,-0.02797 -0.298372,0.05728 -0.355648,0 -0.02096,-0.02096 0.02651,-0.07566 0,-0.08891 -0.1566,-0.0783 -0.170952,0.0069 -0.266737,-0.08891 -0.03951,-0.03951 0,-0.512312 0,-0.533474 0,-0.08891 -0.03976,-0.187211 0,-0.266737 0.116984,-0.233968 1.194327,-1.435417 1.422596,-1.511509 0.313261,-0.10442 0.53261,-0.08718 0.711298,-0.444561 0.191381,-0.382762 -0.296876,-0.98104 -0.355649,-1.333682 -0.06068,-0.364085 0,-0.786593 0,-1.155859 0,-0.994471 0.492612,-0.747337 1.155859,-1.244772 1.395418,-1.046565 3.032552,-1.586854 4.712349,-2.04498 1.194259,-0.325708 -0.459711,0.203837 1.066947,-0.177827 0.513639,-0.128407 1.014173,-0.367694 1.511508,-0.533471 0.993329,-0.33111 2.639102,-0.581991 3.467577,-1.244772 0.160637,-0.128511 0.551045,-0.408363 0.622386,-0.622387 0.01875,-0.05623 -0.02651,-0.124807 0,-0.177824 0.03749,-0.07498 0.131325,-0.108075 0.177824,-0.177824 0.07352,-0.110284 0.100786,-0.247796 0.177825,-0.35565 0.07309,-0.10232 0.193651,-0.164418 0.266736,-0.266735 0.310002,-0.434004 0.534281,-0.95722 0.800211,-1.422597 0.173982,-0.304469 0.40801,-0.554554 0.533473,-0.889122 0.02718,-0.07247 0.246177,-0.608497 0.266737,-0.711298 0.02325,-0.116248 -0.06576,-0.25701 0,-0.355649 0.0465,-0.06975 0.146692,-0.09999 0.177824,-0.177825 0.03302,-0.08255 -0.01744,-0.179551 0,-0.266736 0.013,-0.06499 0.07592,-0.112841 0.08891,-0.177825 0.04581,-0.229058 0.05028,-0.479479 0.08891,-0.711298 0.05389,-0.323327 0.22037,-0.564559 0.266737,-0.889122 0.08594,-0.601594 0.256492,-1.183307 0.355649,-1.778245 0.114175,-0.68505 0.203344,-2.603975 0.711297,-3.111928 0.04686,-0.04686 0.130964,-0.04205 0.177825,-0.08891 0.136869,-0.136869 0.218779,-0.396604 0.355649,-0.533473 0.04686,-0.04686 0.124807,-0.04915 0.177824,-0.08891 0.228285,-0.171213 0.356436,-0.409941 0.533474,-0.622386 0.05426,-0.06512 0.616376,-0.525061 0.622385,-0.533473 0.295801,-0.41412 0.350792,-0.86484 0.444561,-1.333684 0.143965,-0.719815 -0.329425,-1.354162 -0.444561,-2.044982 -0.04641,-0.278463 0.12247,-0.733096 0,-0.978034 -0.07582,-0.151638 -0.132133,-0.350713 -0.177824,-0.533474 -0.02875,-0.11501 0.03749,-0.243183 0,-0.355649 -0.02951,-0.08854 -0.14831,-0.178195 -0.177824,-0.266737 -0.03749,-0.112466 0.05302,-0.249615 0,-0.355649 -0.01326,-0.02651 -0.07566,0.02651 -0.08891,0 -0.05192,-0.103832 -0.123809,-0.571711 -0.08891,-0.711298 0.137031,-0.548131 0.656376,-0.827403 1.066946,-1.155859 0.531868,-0.425494 0.788109,-1.382093 0.622385,-2.0449812 -0.01606,-0.064293 -0.05927,-0.1185497 -0.08891,-0.1778246 -0.02964,-0.088912 -0.06618,-0.1758133 -0.08891,-0.2667368 -0.08611,-0.3444298 2.64e-4,-0.7107703 -0.177824,-1.0669468 -0.02651,-0.053017 0.02651,-0.1248074 0,-0.1778244 -0.134867,-0.2697553 -0.66083,-0.2162891 -0.800212,-0.3556719 -0.128649,-0.1286484 0.130527,-0.8597892 0.177826,-0.9780347 0.08239,-0.2059765 0.223946,-0.4973528 0.266735,-0.711298 0.01744,-0.087186 -0.02811,-0.1823871 0,-0.2667367 0.0094,-0.028116 0.07566,0.026509 0.08891,0 0.08891,-0.1778244 -0.04445,-0.1333683 0,-0.2667367 0.02569,-0.077102 0.137218,-0.2947379 0.177824,-0.355649 0.203369,-0.3050517 0.639966,-0.6399653 0.889124,-0.8891224 z"
       id="path1"
       inkscape:export-filename="observatory.svg"
       inkscape:export-xdpi="96"
       inkscape:export-ydpi="96" /></g></svg>
