<?xml version="1.0" encoding="UTF-8" standalone="no"?>
<!-- Created with Inkscape (http://www.inkscape.org/) -->

<svg
   version="1.1"
   width="1104.5815"
   height="440.29987"
   id="svg2"
   xmlns:xlink="http://www.w3.org/1999/xlink"
   xmlns="http://www.w3.org/2000/svg"
   xmlns:svg="http://www.w3.org/2000/svg"
   xmlns:rdf="http://www.w3.org/1999/02/22-rdf-syntax-ns#"
   xmlns:cc="http://creativecommons.org/ns#"
   xmlns:dc="http://purl.org/dc/elements/1.1/">
  <metadata
     id="metadata23">
    <rdf:RDF>
      <cc:Work
         rdf:about="">
        <dc:format>image/svg+xml</dc:format>
        <dc:type
           rdf:resource="http://purl.org/dc/dcmitype/StillImage" />
      </cc:Work>
    </rdf:RDF>
  </metadata>
  <defs
     id="defs4">
    <linearGradient
       id="linearGradient3063">
      <stop
         style="stop-color:#6b6055;stop-opacity:1"
         offset="0"
         id="stop3065" />
      <stop
         style="stop-color:#6b6055;stop-opacity:1"
         offset="1"
         id="stop3067" />
    </linearGradient>
    <linearGradient
       xlink:href="#linearGradient3063"
       id="linearGradient3069"
       x1="532.82074"
       y1="694.12231"
       x2="532.82074"
       y2="263.72833"
       gradientUnits="userSpaceOnUse" />
  </defs>
  <g
     transform="translate(244.24546,-269.74233)"
     id="g13">
    <g
       id="g3918">
      <path
         d="M 240,300 V 660 H 820 V 300 Z"
         id="path15"
         style="fill:#ffffff00" />
      <g
         transform="translate(144.245,72.362)"
         id="g3770">
        <g
           transform="translate(-172.59,-95.4751)"
           id="g4018">
          <g
             transform="translate(33.9671,28.4589)"
             id="g4030">
            <g
               transform="translate(138.424,82.569)"
               id="g3933" />
            <path
               d="m -51.507956,624.39195 c -18.13302,-2.20203 -34.789107,-12.87107 -42.814437,-27.42471 -8.181607,-14.83705 -8.928037,-22.60799 -8.446507,-87.93466 0.37298,-50.60085 0.50341,-53.77285 2.50905,-61.01904 4.780847,-17.27277 14.037827,-29.05361 28.408984,-36.15455 19.72307,-9.74535 40.97911,-8.47345 59.58966,3.56564 11.84725031,7.66395 19.0470103,18.74639 22.88893,35.23244 1.701661,7.30202 1.864321,12.88589 1.864321,64 0,62.13567 -0.30215,65.7264 -6.6636307,79.1905 -6.12899999,12.97204 -19.9870503,24.40151 -34.4486003,28.41158 -6.364,1.76468 -17.42866,2.79575 -22.88777,2.1328 z m 15.89004,-40.58321 c 6.94577,-5.2978 6.99475,-5.73321 7.37969,-65.59803 0.29896,-46.49398 0.13262,-54.39497 -1.27875,-60.73879 -1.90178,-8.54813 -5.23777,-12.63104 -11.75399,-14.38567 -8.43777,-2.27206 -16.16723,2.55716 -18.84369,11.77317 -2.06163,7.09896 -2.04028,112.56846 0.0242,119.68185 1.54549,5.32509 6.5687,11.16055 10.29078,11.95479 4.83713,1.03217 10.78217,-0.0944 14.18172,-2.68732 z m 102.109969,40.62657 c -10.05339,-1.33855 -15.92063,-5.21769 -19.9473,-13.18822 -5.055399,-10.00682 -5.052699,-9.94823 -5.052699,-109.59002 v -92.99998 h 20.277509 20.27749 l 0.42841,85.71439 c 0.46543,93.12025 0.32656,90.94684 5.90048,92.34581 5.1182,1.28458 10.77679,-1.45855 17.838827,-8.64779 l 6.7655,-6.88736 0.25589,-81.26254 0.25588,-81.26251 20.25001,-0.27072 20.25,-0.27069 v 106.44123 106.44125 l -2.75,0.56484 c -3.31773,0.68144 -34.02595,0.63705 -36.50001,-0.0528 -1.51208,-0.4216 -1.75,-1.80007 -1.75,-10.13924 v -9.65131 l -5.75,5.59835 c -13.231127,12.88219 -27.509987,18.88011 -40.749987,17.11728 z m -263.123723,-3.47843 c -0.85057,-1.37626 -0.723,-83.64703 0.14777,-95.29981 1.11659,-14.94216 0.32423,-26.68985 -10.40221,-56.73291 -3.48219,-9.7531 -10.19374,-29.5117 -14.38984,-42.85859 -30.31305,-96.41932 -28.27444,-89.89967 -25.37829,-89.9244 19.96744,-0.17045 42.91222,-0.0515 43.18027,0.21656 0.19218,0.19218 6.68395,23.73816 14.42614,52.32439 7.74219,28.58623 14.20409,52.38194 14.35978,52.87937 0.15568,0.49744 4.70032,-16.15254 10.0992,-36.99998 11.3176,-43.70227 17.66811,-67.83118 17.91103,-68.05344 0.50626,-0.46321 6.13548,-0.57018 24.52928,-0.46614 l 20.3594,0.11515 -0.44831,3.25 c -0.36652,2.65701 -14.25823,49.31457 -28.80612,96.74999 -1.60245,5.225 -5.65384,18.725 -9.00308,30 -3.34925,11.275 -7.41069,24.66788 -9.02542,29.76196 l -2.93588,9.26196 v 57.92065 c 0,54.31348 -0.10899,57.95047 -1.75,58.39942 -3.64979,0.9985 -42.22287,0.50891 -42.87372,-0.54418 z"
               id="path19-8"
               style="fill:#ffffff00;fill-opacity:1;stroke:none" />
            <path
               d="m -51.040732,621.44569 c -18.13302,-2.20203 -34.78911,-12.87107 -42.81444,-27.42471 -8.181608,-14.83705 -8.928038,-22.60799 -8.446508,-87.93466 0.37298,-50.60085 0.50341,-53.77285 2.509048,-61.01904 4.78085,-17.27277 14.03783,-29.05361 28.40899,-36.15455 19.72307,-9.74535 40.979107,-8.47345 59.589657,3.56564 11.84725008,7.66395 19.0470101,18.74639 22.88893,35.23244 1.70166,7.30202 1.86432,12.88589 1.86432,64 0,62.13567 -0.30215,65.7264 -6.6636299,79.1905 -6.12900002,12.97204 -19.9870501,24.40151 -34.4486001,28.41158 -6.364,1.76468 -17.428657,2.79575 -22.887767,2.1328 z m 15.890037,-40.58321 c 6.94577,-5.2978 6.99475,-5.73321 7.37969,-65.59803 0.29896,-46.49398 0.13262,-54.39497 -1.27875,-60.73879 -1.90178,-8.54813 -5.23777,-12.63104 -11.75399,-14.38567 -8.437767,-2.27206 -16.167227,2.55716 -18.843687,11.77317 -2.06163,7.09896 -2.04028,112.56846 0.0242,119.68185 1.54549,5.32509 6.5687,11.16055 10.29078,11.95479 4.83713,1.03217 10.782167,-0.0944 14.181717,-2.68732 z m 102.10997,40.62657 C 56.905886,620.1505 51.038646,616.27136 47.011976,608.30083 41.956575,598.29401 41.959275,598.3526 41.959275,498.71081 v -92.99998 h 20.277511 20.277489 l 0.42841,85.71439 c 0.46543,93.12025 0.32656,90.94684 5.90048,92.34581 5.1182,1.28458 10.77679,-1.45855 17.838835,-8.64779 l 6.7655,-6.88736 0.25589,-81.26254 0.25588,-81.26251 20.25,-0.27072 20.25,-0.27069 V 511.61065 618.0519 l -2.75,0.56484 c -3.31773,0.68144 -34.02594,0.63705 -36.5,-0.0528 -1.51208,-0.4216 -1.75,-1.80007 -1.75,-10.13924 v -9.65131 l -5.75,5.59835 c -13.231135,12.88219 -27.509995,18.88011 -40.749995,17.11728 z m -263.123725,-3.47843 c -0.85057,-1.37626 -0.723,-83.64703 0.14777,-95.29981 1.11659,-14.94216 -1.39298,-26.68985 -12.11942,-56.73291 -3.48219,-9.7531 -9.76444,-28.6531 -13.96054,-41.99999 -30.31305,-96.41932 -28.70374,-90.75827 -25.80759,-90.783 19.96744,-0.17045 44.62943,-0.0515 44.89748,0.21656 0.19218,0.19218 6.68395,23.73816 14.42614,52.32439 7.74219,28.58623 14.20409,52.38194 14.35978,52.87937 0.15568,0.49744 4.70032,-16.15254 10.0992,-36.99998 11.3176,-43.70227 17.66811,-67.83118 17.91103,-68.05344 0.50626,-0.46321 6.13548,-0.57018 24.52928,-0.46614 l 20.3594,0.11515 -0.44831,3.25 c -0.36652,2.65701 -14.25823,49.31457 -28.80612,96.74999 -1.60245,5.225 -5.65384,18.725 -9.00308,30 -3.34925,11.275 -7.41069,24.66788 -9.02542,29.76196 l -2.93588,9.26196 v 57.92065 c 0,54.31348 -0.10899,57.95047 -1.75,58.39942 -3.64979,0.9985 -42.22287,0.50891 -42.87372,-0.54418 z"
               id="path19"
               style="fill:#6b6055;fill-opacity:1;stroke:#2f2f2f;stroke-width:1;stroke-miterlimit:4;stroke-dasharray:none;stroke-opacity:1" />
            <path
               id="path17"
               style="fill:url(#linearGradient3069);fill-opacity:1;stroke:none"
               d="m 560.1439,264.47142 c -121.08986,-0.73202 -278.25953,4.00354 -300.78906,9.76562 -11.90036,3.0436 -20.82283,8.2171 -30.10938,17.45899 -16.27244,16.19417 -25.96677,39.41992 -29.86328,71.54687 -8.89706,73.3567 -9.08618,161.98431 -0.50976,238 3.68896,32.69667 11.28352,53.93991 25.54492,71.44727 8.89838,10.9237 24.22963,20.20646 37.94922,22.97851 9.62515,1.94478 57.79871,4.64375 127.96484,7.16797 10.44999,0.37594 38.12502,1.02273 61.5,1.4375 48.71592,0.86441 138.29219,0.35188 189.5,-1.08398 34.45317,-0.96606 97.26151,-3.51452 109,-4.42188 3.3,-0.25509 10.95001,-0.74236 17,-1.08398 20.32758,-1.14782 33.25961,-5.4039 45.4043,-14.94531 15.71678,-12.34782 27.8874,-35.17048 33.02929,-61.9336 4.8653,-25.32342 8.12185,-70.41863 8.78125,-121.61914 0.551,-42.77998 -0.18414,-65.8647 -3.27734,-102.94336 -3.9043,-46.8005 -7.00817,-61.98792 -16.66016,-81.5 -12.78348,-25.84244 -31.25588,-39.46736 -57.56445,-42.45898 -20.34288,-2.31324 -96.88324,-5.57613 -167.71289,-7.15039 -15.32826,-0.34069 -31.88895,-0.55754 -49.1875,-0.66211 z m -306.44336,71.70508 65.75,0.25 65.75,0.28125 0.28125,18.71875 0.28125,18.71875 -22.78125,0.28125 -22.78125,0.28125 -0.5,121.5 -0.5,121.5 -19.75,0.25 c -15.27597,0.20953 -19.91063,-0.0179 -20.28125,-1 -0.26386,-0.69917 -0.58289,-55.47507 -0.71875,-121.75 l -0.25,-120.5 -22.25,-0.28125 -22.25,-0.28125 V 355.1765 Z m 286,0.0312 h 18 18 v 46 c 0,25.29997 0.3375,46.0002 0.75,46 0.4125,-2.1e-4 4.20951,-3.35728 8.4375,-7.4375 9.73082,-9.39076 17.86461,-13.50053 28.1875,-14.28125 18.40828,-1.39221 29.37866,8.08094 34.40625,29.71875 1.5681,6.74915 1.71875,14.45783 1.71875,77 0,76.18313 -0.008,76.50107 -6.09375,90.0625 -3.1694,7.06223 -10.23736,13.97713 -16.03125,15.6875 -15.12048,4.46352 -27.24951,0.82689 -41.25,-12.34375 -4.34476,-4.08724 -8.38926,-7.40625 -9,-7.40625 -0.73598,0 -1.125,3.2035 -1.125,9.5 v 9.5 h -18 -18 v -141 z m 198.125,70.0625 c 20.92768,-0.42842 41.70156,10.82682 50.40625,29.15625 5.87269,12.36622 6.5996,17.65545 7.1875,52.5 l 0.53125,31.25 -38.375,0.25 -38.375,0.28125 -0.28125,21 c -0.4012,29.62605 1.59806,38.73671 9.59375,44.125 6.72569,4.53239 17.05981,4.19116 22.6875,-0.75 5.2733,-4.63004 6.76065,-9.60461 7.28125,-24.125 l 0.46875,-12.75 h 18.53125 18.53125 l -0.59375,14.25 c -0.3207,7.83749 -1.2695,16.82826 -2.125,20 -5.00549,18.56073 -18.33187,31.70322 -37.59375,37.09375 -25.93397,7.25775 -54.47981,-4.63389 -65.875,-27.4375 -6.39579,-12.79926 -6.625,-15.35288 -6.625,-77.90625 0,-51.00281 0.1796,-57.26058 1.8125,-64.21875 4.62,-19.687 16.07797,-32.42976 35.46875,-39.5 5.6198,-2.04909 11.48396,-3.09879 17.34375,-3.21875 z m -343.125,2.9375 h 18 17.96875 l 0.28125,85.25 c 0.26706,83.76923 0.30688,85.30474 2.3125,88.71875 2.658,4.52449 6.71124,5.73959 13.15625,3.96875 3.79159,-1.04179 6.37856,-2.88403 12.53125,-9 l 7.75,-7.71875 v -80.59375 -80.625 h 18 18 v 104.5 104.5 h -18 -18 v -11 c 0,-8.27665 -0.31717,-11 -1.28125,-11 -0.70472,0 -3.96722,2.72825 -7.25,6.0625 -7.1202,7.23183 -15.5523,13.05699 -22.75,15.75 -14.90392,5.57627 -29.06323,2.32265 -35.09375,-8.0625 -5.52051,-9.50685 -5.625,-11.63198 -5.625,-110.21875 z m 344.59375,29.625 c -9.65199,0 -15.77085,4.66507 -18.65625,14.25 -1.228,4.07924 -2.52135,32.11373 -1.59375,34.53125 0.5189,1.35214 3.32227,1.59375 20.21875,1.59375 h 19.59375 l -0.3125,-17.75 c -0.3035,-16.28268 -0.54365,-18.14465 -2.71875,-22.5625 -3.4317,-6.96993 -8.49676,-10.0625 -16.53125,-10.0625 z m -144.125,2.34375 c -4.39401,0.1576 -9.27178,2.0112 -13.96875,5.59375 l -3.5,2.65625 v 63.78125 63.75 l 3.5,2.65625 c 7.92263,6.04288 16.62921,7.32361 22.625,3.3125 2.3724,-1.58714 3.9201,-3.77511 5.125,-7.25 1.569,-4.52534 1.7052,-10.32154 1.5,-63.96875 -0.2139,-55.9167 -0.33655,-59.20909 -2.15625,-62.875 -2.6137,-5.26578 -7.47556,-7.85887 -13.125,-7.65625 z" />
          </g>
        </g>
      </g>
    </g>
  </g>
</svg>
